<svg xmlns="http://www.w3.org/2000/svg" xmlns:xlink="http://www.w3.org/1999/xlink" version="1.1" x="0px" y="0px" viewBox="0 0 100 125" style="enable-background:new 0 0 100 100;" xml:space="preserve"><style type="text/css">
	.st0{fill-rule:evenodd;clip-rule:evenodd;}
</style><path class="st0" d="M90.856,60.211c0-2.712,4.12-2.712,4.12,0v26.992c0,4.261-3.502,7.761-7.761,7.761H12.785  c-2.021,0-4.248-0.916-5.478-2.283l-0.004,0.004c-1.406-1.406-2.279-3.347-2.279-5.482V60.211c0-2.712,4.12-2.712,4.12,0v26.992  c0,0.999,0.41,1.91,1.071,2.57l-0.004,0.004c0.661,0.659,1.572,1.067,2.574,1.067h74.431c2.009,0,3.641-1.632,3.641-3.641V60.211  L90.856,60.211z M72.763,41.656L52.06,62.359V7.071c0-2.712-4.12-2.712-4.12,0v55.288L27.237,41.656  c-1.917-1.917-4.83,0.995-2.912,2.912l24.184,24.184c0.827,0.852,2.146,0.856,2.982,0l24.184-24.184  C77.593,42.651,74.68,39.739,72.763,41.656z"/><text x="0" y="115" fill="#000000" font-size="5px" font-weight="bold" font-family="'Helvetica Neue', Helvetica, Arial-Unicode, Arial, Sans-serif">Created by Dwi Budiyanto</text><text x="0" y="120" fill="#000000" font-size="5px" font-weight="bold" font-family="'Helvetica Neue', Helvetica, Arial-Unicode, Arial, Sans-serif">from the Noun Project</text></svg>